<svg width="32" height="32" viewBox="0 0 32 32" fill="none" xmlns="http://www.w3.org/2000/svg">
  <!-- Robotic Hand -->
  <path d="M8 12 L10 10 L12 12 L14 10 L16 12 L18 10 L20 12 L22 10 L24 12" stroke="white" stroke-width="1.5" stroke-linecap="round" stroke-linejoin="round"/>
  
  <!-- Hand segments -->
  <path d="M8 12 L8 16" stroke="white" stroke-width="1.5" stroke-linecap="round"/>
  <path d="M12 12 L12 16" stroke="white" stroke-width="1.5" stroke-linecap="round"/>
  <path d="M16 12 L16 16" stroke="white" stroke-width="1.5" stroke-linecap="round"/>
  <path d="M20 12 L20 16" stroke="white" stroke-width="1.5" stroke-linecap="round"/>
  <path d="M24 12 L24 16" stroke="white" stroke-width="1.5" stroke-linecap="round"/>
  
  <!-- Heart -->
  <path d="M16 18 C16 18 14 16 12 18 C10 20 12 22 16 24 C20 22 22 20 20 18 C18 16 16 18 16 18" stroke="white" stroke-width="1.5" fill="none" stroke-linecap="round" stroke-linejoin="round"/>
  
  <!-- Wrist connection -->
  <path d="M6 16 L8 16" stroke="white" stroke-width="1.5" stroke-linecap="round"/>
  <circle cx="6" cy="16" r="1" stroke="white" stroke-width="1" fill="none"/>
  
  <!-- Rectangular attachment -->
  <rect x="2" y="14" width="4" height="4" stroke="white" stroke-width="1.5" fill="none"/>
</svg>
